<svg xmlns="http://www.w3.org/2000/svg" width="208" height="120" viewBox="0 0 208 120" fill="none">
  <path d="M51.1513 60.3698L51.2838 59.6801H50.4542V59.2326C50.4542 59.0441 50.5699 58.86 50.9418 58.86H51.3192V58.2729C51.3192 58.2729 50.9767 58.2263 50.6494 58.2263C49.9663 58.2263 49.5195 58.5564 49.5195 59.1545V59.6801H48.7598V60.3698H49.5195V62.0366C49.6718 62.0557 49.8279 62.0654 49.9869 62.0654C50.1459 62.0654 50.302 62.0553 50.4542 62.0366V60.3698H51.1513Z" fill="white"/>
  <path d="M42.8088 112.049C42.8034 112.055 42.7975 112.055 42.7866 112.049V112.033C42.7979 112.038 42.8034 112.049 42.8088 112.049Z" fill="white"/>
  <path d="M43.1614 112.354H43.2952C43.2147 112.29 42.9952 112.226 42.7866 112.172V112.065C42.8027 112.065 42.8238 112.065 42.8509 112.07H42.8561C43.038 112.172 43.4128 112.285 43.4128 112.354H43.4666L43.6166 112.429C43.5099 112.424 43.3328 112.391 43.1618 112.354H43.1614Z" fill="white"/>
  <path d="M46.3149 79.7677C46.3419 80.9026 46.2934 80.5654 46.2668 81.754C46.2025 82.0217 46.342 84.3937 46.342 84.9718L46.331 84.8699C46.3096 86.2405 46.1491 87.1562 46.1277 88.4949C46.0258 92.2269 46.0205 96.3014 45.9134 99.7549C46.0153 99.782 45.9081 98.9948 46.0367 98.9516C45.9829 100.986 45.801 103.042 45.7153 105.104C45.6781 105.468 45.6029 105.923 45.5548 106.089C45.4905 106.753 45.6029 106.48 45.5657 106.957L45.459 107.026C45.5176 107.728 45.2928 108.054 45.3037 108.718C45.3518 108.755 45.3466 108.991 45.3357 109.227C45.2071 109.243 45.2985 109.917 45.2018 109.917L45.2075 109.923C45.1917 110.067 45.2018 110.169 45.1703 110.345C45.1861 110.479 45.2556 111.17 45.3203 111.871L45.3526 112.134L45.3741 112.182C45.4008 112.23 45.4113 112.278 45.4278 112.316C45.465 112.412 45.4917 112.481 45.5026 112.514C45.4917 112.519 45.4816 112.525 45.4759 112.525C45.4602 112.605 45.5564 112.755 45.594 112.717L45.5669 112.846L45.556 112.814L45.5293 112.937H45.5131C45.465 112.894 45.4113 112.825 45.3846 112.76C45.3737 112.798 45.3308 112.814 45.2774 112.798C45.3579 112.852 45.4489 112.91 45.5451 112.975C45.6417 112.921 45.7488 112.83 45.8556 112.643C45.8984 112.83 45.8018 113.006 45.8018 113.157C45.7804 113.173 45.7484 113.194 45.727 113.221C45.5342 113.104 45.2827 112.959 45.0793 112.841C45.0417 112.841 45.0256 113.007 44.9027 112.894C44.8327 112.75 44.8275 112.868 44.6508 112.734C44.7527 112.75 44.7579 112.739 44.7793 112.739C44.8117 112.739 44.8331 112.75 44.8598 112.755L44.9936 112.809C44.9775 112.734 44.9241 112.696 44.8703 112.664C44.8218 112.643 44.7899 112.632 44.6132 112.557C44.4899 112.568 43.9226 112.354 43.5475 112.278C43.676 112.225 43.526 112.171 43.3494 112.102H43.3336C43.2426 112.064 43.1517 112.027 43.0874 111.978C42.9536 111.936 42.8517 111.909 42.7874 111.909V7.3831C43.0231 7.32407 43.2584 7.25453 43.6869 7.21168L43.6493 7.16357L44.5542 6.94404C44.7418 6.89592 44.7418 6.90644 44.8218 6.89026L44.988 6.85792L45.5661 6.77747L45.5447 7.57514L45.5338 9.83475C45.5447 11.4463 45.5499 13.0687 45.5661 14.6911C45.7375 17.7003 45.7108 20.9662 45.7909 24.0934C45.909 27.445 46.0266 31.0861 46.1176 33.9882C46.1604 34.6844 46.0804 35.1768 46.0428 35.7606C46.08 38.4269 46.1337 41.7947 46.1819 44.7986C46.1819 44.7396 46.1875 44.6862 46.1875 44.6539C46.2142 46.244 46.1337 47.4435 46.1604 48.9908C46.1818 48.9908 46.1819 49.2265 46.198 49.3441C46.0961 49.6065 46.4604 58.4945 46.3961 59.0407C46.4014 59.2012 46.4119 59.3727 46.4119 59.5441C46.369 62.8261 46.1871 66.2154 46.2029 69.0321C46.251 69.6478 46.2938 70.3331 46.3476 70.8526C46.3048 71.3455 46.3848 71.4417 46.369 72.0465C46.1814 73.5671 46.2566 74.4666 46.3318 73.6742C46.3585 74.9271 46.3318 76.1853 46.3428 77.3044C46.3585 77.8186 46.3694 78.3272 46.3852 78.852C46.4014 79.2963 46.3694 79.5373 46.3157 79.7677H46.3149Z" fill="white"/>
  <path d="M47.723 109.227C47.7501 109.265 47.7392 109.302 47.6911 109.313C47.5625 109.286 47.6001 109.255 47.723 109.227Z" fill="white"/>
  <path d="M48.8322 109.077L48.7993 109.066C48.8813 109.066 48.8813 109.072 48.8322 109.077Z" fill="white"/>
  <path d="M51.5299 59.5715C51.4923 62.6073 51.3156 65.7503 51.3051 68.3633C51.3423 68.9256 51.3746 69.5628 51.4175 70.0447C51.3799 70.5052 51.4498 70.5909 51.4389 71.1477C51.2461 72.5611 51.3103 73.3858 51.3851 72.6577C51.4009 73.8196 51.3742 74.9868 51.3742 76.015C51.3851 76.4916 51.3956 76.9679 51.4066 77.4551C51.4175 77.8622 51.3904 78.0922 51.3366 78.2956C51.358 79.3451 51.3099 79.0399 51.278 80.1376C51.1975 80.4052 51.3637 82.8953 51.3366 83.2058L51.3261 83.0291C51.299 84.2982 51.1332 85.144 51.1066 86.3864C51.0261 89.856 50.9404 93.6091 50.8709 96.8111C50.9776 96.8435 50.8599 96.1044 51.0047 96.0668C50.9509 97.9569 50.7585 99.8579 50.6833 101.764C50.6404 102.107 50.5656 102.524 50.5171 102.685C50.4528 103.29 50.5656 103.043 50.5385 103.488L50.4205 103.547C50.4904 104.2 50.2547 104.5 50.2761 105.11C50.3243 105.142 50.3243 105.367 50.3081 105.587C50.1848 105.598 50.2867 106.224 50.1795 106.224L50.1848 106.229C50.1739 106.363 50.1795 106.454 50.1524 106.614C50.1686 106.748 50.2438 107.391 50.3238 108.034C50.361 108.349 50.4043 108.756 50.4415 108.724C50.4791 108.805 50.5058 108.864 50.5167 108.885L50.49 108.906C50.4791 109.003 50.581 109.115 50.6133 109.073L50.5919 109.196L50.581 109.174L50.5539 109.292C50.5434 109.303 50.4686 109.244 50.4096 109.147C50.4253 109.19 50.4362 109.233 50.4468 109.271C50.4197 109.282 50.3825 109.282 50.3287 109.255C50.3877 109.282 50.4468 109.314 50.511 109.351C50.6178 109.303 50.7411 109.18 50.8696 108.939C50.9125 109.105 50.8211 109.308 50.8268 109.437C50.7839 109.469 50.7411 109.523 50.693 109.571C50.5377 109.501 50.361 109.415 50.211 109.341C50.1787 109.346 50.1949 109.517 50.0611 109.415C49.9968 109.287 49.9377 109.4 49.8577 109.298C49.9543 109.255 50.0344 109.298 50.1306 109.324C50.072 109.174 49.9163 109.191 49.8577 109.143C49.8363 109.18 49.2262 109.019 48.8939 108.993C49.0115 108.928 48.851 108.891 48.6796 108.848H48.621C48.5142 108.853 48.3962 108.859 48.2781 108.864C48.2567 108.864 48.2357 108.87 48.2142 108.87C48.3905 108.95 48.7924 109.03 48.7657 109.089C48.7924 109.089 48.8138 109.084 48.83 109.078L48.9691 109.137C48.8728 109.143 48.7014 109.137 48.5357 109.115C48.268 109.147 47.9037 109.185 47.7214 109.228C47.6947 109.169 47.5876 109.094 47.4056 109.04L47.2342 109.067C48.0052 109.233 47.0414 109.485 47.0038 109.704H46.9929C46.9504 109.099 46.9342 108.617 46.9714 108.542C46.9714 108.291 46.9557 107.985 46.891 108.044C46.9233 107.621 47.009 108.178 47.0624 107.873C47.0515 107.862 47.0301 107.894 47.0301 107.803L47.1048 107.509C47.0139 106.85 47.121 105.886 47.0086 105.196C47.0624 105.394 47.1691 105.619 47.2282 106.069L47.1962 106.144C47.212 106.208 47.2334 106.561 47.2981 106.561C47.3248 106.139 47.3139 105.78 47.2496 105.33C47.2658 105.255 47.2819 105.164 47.2981 105.094C47.2872 105.094 47.2819 105.105 47.271 105.105C47.3034 104.96 47.3139 104.971 47.3353 105.02C47.3353 105.025 47.3406 105.041 47.3406 105.057C47.4958 104.789 47.2282 103.397 47.3034 102.621C47.271 102.401 47.271 102.61 47.2447 102.321C47.2985 101.534 47.3357 100.993 47.3571 100.163C47.2985 99.906 47.2662 99.8846 47.2124 100.206L47.2233 99.5797C47.3895 100.142 47.368 98.4178 47.5233 99.0388C47.5556 98.8568 47.5556 98.4821 47.5233 98.1392C47.4861 98.1016 47.4267 98.0482 47.4162 97.6092C47.4647 96.9987 47.459 97.1592 47.4861 96.6453C47.5342 96.522 47.5556 96.7044 47.5928 96.6882C47.5233 95.9063 47.6947 96.0029 47.668 95.2748C47.6466 94.809 47.6252 93.9042 47.55 93.8828C47.5391 93.2561 47.6038 93.2561 47.668 93.3204V92.8171C47.7004 94.4448 47.7004 96.1634 47.6947 97.8501C47.9304 94.1771 48.0266 89.8346 47.4861 86.9968C47.759 86.6863 47.8395 83.1148 47.7752 83.0453C47.7214 82.3009 47.679 81.557 47.6414 80.7966C47.4166 76.0044 47.5128 70.7894 47.609 65.403C47.6628 62.4153 47.7537 54.2982 47.8609 51.23C47.8718 50.9838 47.8766 50.7376 47.8823 50.4857C47.8823 50.3733 47.888 50.2609 47.888 50.1429C47.888 50.1752 47.8823 50.2072 47.8823 50.2391C47.8766 50.4267 47.8714 50.5496 47.8665 50.6834C47.8609 50.8549 47.8556 51.042 47.8395 51.3849C47.7857 49.511 47.7327 47.8081 47.6842 46.186C47.647 46.4751 47.6038 46.5232 47.5504 47.2033L47.5775 46.368C47.4651 45.6079 47.4808 43.8516 47.4327 43.0269C47.4966 43.2036 47.518 42.5555 47.5237 41.9773L47.4865 42.2074C47.5237 40.0335 47.497 37.4957 47.5184 35.5519C47.5184 35.2733 47.5508 35.0809 47.5722 34.947L47.535 33.0836C47.6155 33.2122 47.6312 31.8683 47.6688 32.2269C47.5936 30.8936 47.6632 29.5497 47.5617 28.2754C47.594 23.5156 47.5779 18.4558 47.4065 13.5242L47.3583 13.6475C47.3155 12.6408 47.2083 11.6984 47.1441 10.6703C48.1293 10.6865 48.1665 10.4989 49.0503 10.5098L49.0127 10.4617L49.7946 10.3598L50.0946 10.3489L50.598 10.3331C50.6517 12.898 50.7051 15.4519 50.7589 18.0273C50.957 20.8169 50.9679 23.8366 51.0641 26.7334C51.166 29.8444 51.2784 33.2122 51.3641 35.9052C51.3908 36.5424 51.3427 37.0029 51.316 37.5491C51.3483 39.9801 51.3855 43.0317 51.4179 45.7789C51.4336 47.2514 51.3803 48.3595 51.3908 49.8C51.407 49.8 51.407 50.0143 51.4179 50.1215C51.3427 50.3729 51.5731 58.5971 51.5246 59.1057C51.5246 59.2557 51.5303 59.411 51.5303 59.5715H51.5299Z" fill="white"/>
  <path d="M43.3275 112.376C43.3198 112.368 43.3122 112.36 43.2972 112.353H43.4039C43.3962 112.36 43.3736 112.368 43.3279 112.376H43.3275Z" fill="#1A2021"/>
  <path d="M43.5555 112.109C43.6315 112.109 43.6699 112.102 43.6546 112.086C43.7763 112.109 43.7152 112.117 43.5555 112.109Z" fill="#1A2021"/>
  <path d="M47.8835 50.2388V50.3193C47.8892 50.2602 47.8892 50.2016 47.8892 50.1426C47.8892 50.1749 47.8835 50.2069 47.8835 50.2388Z" fill="#1A2021"/>
  <path d="M47.4877 86.9961C47.7606 86.6856 47.8411 83.114 47.7768 83.0445C47.723 82.3002 47.6806 81.5563 47.643 80.7958C47.4182 76.0037 47.5144 70.7887 47.6106 65.4022C47.6644 62.4145 47.7554 54.2975 47.8625 51.2293C47.8734 50.983 47.8783 50.7368 47.8839 50.4849V50.3188C47.8783 50.4635 47.873 50.5703 47.8682 50.6826C47.8625 50.8541 47.8573 51.0413 47.8411 51.3841C47.7873 49.5102 47.7343 47.8073 47.6858 46.1853C47.6486 46.4743 47.6054 46.5224 47.552 47.2025L47.5791 46.3672C47.4667 45.6071 47.4825 43.8509 47.4344 43.0261C47.4982 43.2028 47.5197 42.5547 47.5253 41.9766L47.4881 42.2066C47.5253 40.0327 47.4986 37.4949 47.5201 35.5511C47.5201 35.2725 47.5524 35.0801 47.5738 34.9463L47.5366 33.0829C47.6171 33.2114 47.6329 31.8676 47.6705 32.2262C47.5953 30.8928 47.6648 29.5489 47.5633 28.2746C47.5957 23.5148 47.5795 18.4551 47.4081 13.5235L47.36 13.6468C47.3171 12.6401 47.21 11.6977 47.1457 10.6695C47.1457 10.6267 47.14 10.5786 47.14 10.5248C47.1028 9.85003 47.0867 9.11664 47.1243 8.31371C47.0543 7.81036 47.001 7.14125 46.9419 6.57888C46.8886 6.00599 46.8295 5.50264 46.7438 5.18689C46.31 5.39025 45.9886 5.56693 45.8014 5.72784C45.459 5.84023 45.1699 5.94737 44.9237 6.04359C44.6613 6.15073 44.4151 6.25221 44.1737 6.34883C43.7456 6.5146 43.3223 6.69127 42.787 6.88938V7.38221C43.0227 7.32319 43.258 7.25365 43.6865 7.21079L43.6489 7.16268L44.5538 6.94315C44.7413 6.89504 44.7413 6.90555 44.8214 6.88938L44.9876 6.85703L45.5657 6.77658L45.5443 7.57425L45.5334 9.83386C45.5443 11.4454 45.5495 13.0678 45.5657 14.6903C45.7371 17.6994 45.7104 20.9653 45.7905 24.0925C45.9085 27.4442 46.0262 31.0852 46.1172 33.9873C46.16 34.6835 46.08 35.1759 46.0424 35.7597C46.0796 38.426 46.1333 41.7938 46.1814 44.7977C46.1814 44.7387 46.1871 44.6853 46.1871 44.653C46.2138 46.2431 46.1333 47.4426 46.16 48.9899C46.1814 48.9899 46.1815 49.2256 46.1976 49.3432C46.0957 49.6056 46.46 58.4936 46.3957 59.0398C46.401 59.2003 46.4115 59.3718 46.4115 59.5432C46.3686 62.8253 46.1867 66.2145 46.2025 69.0312C46.2506 69.6469 46.2934 70.3322 46.3472 70.8517C46.3044 71.3446 46.3844 71.4408 46.3686 72.0456C46.181 73.5662 46.2562 74.4657 46.3314 73.6733C46.3581 74.9262 46.3314 76.1844 46.3424 77.3035C46.3581 77.8177 46.369 78.3263 46.3848 78.8511C46.401 79.2954 46.369 79.5364 46.3153 79.7668C46.3424 80.9017 46.2938 80.5645 46.2672 81.7532C46.2029 82.0208 46.3424 84.3928 46.3424 84.9709L46.3314 84.8691C46.31 86.2396 46.1495 87.1553 46.1281 88.494C46.0262 92.226 46.0209 96.3005 45.9138 99.754C46.0157 99.7811 45.9085 98.9939 46.0371 98.9507C45.9833 100.985 45.8014 103.041 45.7157 105.103C45.6785 105.467 45.6033 105.922 45.5552 106.088C45.4909 106.752 45.6033 106.479 45.5661 106.956L45.4594 107.025C45.518 107.727 45.2932 108.053 45.3041 108.717C45.3522 108.754 45.347 108.99 45.3361 109.226C45.2075 109.242 45.2989 109.916 45.2022 109.916L45.2079 109.922C45.1921 110.066 45.2022 110.168 45.1707 110.345C45.1865 110.478 45.256 111.169 45.3207 111.87L45.353 112.133L45.3745 112.181C45.4012 112.229 45.4117 112.277 45.4282 112.315C45.4654 112.411 45.4921 112.48 45.503 112.513C45.4921 112.518 45.482 112.524 45.4764 112.524C45.4606 112.604 45.5568 112.754 45.5944 112.717L45.5673 112.845L45.5564 112.813L45.5297 112.936H45.5136C45.4654 112.893 45.4117 112.824 45.385 112.759C45.3741 112.797 45.3312 112.813 45.2779 112.797C45.3583 112.851 45.4493 112.909 45.5455 112.974C45.6421 112.92 45.7493 112.829 45.856 112.642C45.8988 112.829 45.8022 113.006 45.8022 113.156C45.7808 113.172 45.7489 113.193 45.7274 113.22C45.5346 113.103 45.2831 112.958 45.0797 112.84C45.0421 112.84 45.026 113.006 44.9031 112.894C44.8331 112.749 44.8279 112.867 44.6512 112.733C44.7531 112.749 44.7583 112.738 44.7798 112.738C44.8121 112.738 44.8335 112.749 44.8602 112.755L44.994 112.808C44.9779 112.733 44.9245 112.695 44.8707 112.663C44.8222 112.642 44.7903 112.631 44.6136 112.556C44.4903 112.567 43.9231 112.353 43.5479 112.277C43.6764 112.224 43.5264 112.17 43.3498 112.101H43.334C43.243 112.064 43.1521 112.026 43.0878 111.977C42.954 111.935 42.8521 111.908 42.7878 111.908V112.031C42.7987 112.036 42.804 112.047 42.8092 112.047C42.804 112.053 42.7983 112.053 42.7878 112.047V112.064C42.804 112.064 42.825 112.064 42.8521 112.069H42.8573C43.0393 112.171 43.414 112.283 43.414 112.353H43.4678L43.6178 112.427C43.5111 112.422 43.334 112.39 43.163 112.353H43.2968C43.2163 112.288 42.9968 112.224 42.7882 112.171V113.172C42.8953 113.247 43.072 113.338 43.3073 113.439C43.6663 113.53 43.5325 113.439 43.6126 113.424C43.7945 113.515 44.1588 113.659 44.0836 113.729C44.3941 113.713 44.4907 113.916 44.8064 113.98C45.0688 114.002 44.7907 113.927 44.9726 113.927C45.3579 114.056 45.8988 114.248 46.2146 114.345C46.3808 114.484 46.9375 114.8 46.7446 114.875C46.0375 114.65 46.8198 114.687 46.1608 114.51C46.5785 114.837 45.5827 114.398 45.497 114.521C45.7489 114.687 46.268 114.837 46.6533 114.928L46.5518 114.875C46.6856 114.907 46.857 114.955 47.0495 114.998C47.0337 114.64 47.0386 114.275 47.1032 114.072C47.1728 114.233 47.2156 114.088 47.2318 114.399L47.2375 113.842C47.216 113.762 47.1946 113.676 47.1837 113.821C47.1299 113.526 47.157 113.302 47.1946 113.119C47.2104 113.119 47.2003 112.953 47.1837 112.718V112.67C47.2104 112.611 47.1946 112.225 47.1623 111.872C47.1299 111.492 47.0927 111.015 47.0551 110.544C47.0341 110.255 47.0127 109.966 46.9965 109.704C46.9541 109.099 46.9379 108.617 46.9751 108.542C46.9751 108.29 46.9593 107.985 46.8946 108.044C46.927 107.621 47.0127 108.177 47.066 107.872C47.0551 107.861 47.0337 107.894 47.0337 107.803L47.1085 107.508C47.0175 106.85 47.1247 105.886 47.0123 105.195C47.066 105.394 47.1728 105.618 47.2318 106.068L47.1999 106.143C47.2156 106.208 47.2371 106.561 47.3018 106.561C47.3284 106.138 47.3175 105.779 47.2532 105.33C47.2694 105.254 47.2856 105.163 47.3018 105.094C47.2908 105.094 47.2856 105.105 47.2747 105.105C47.307 104.96 47.3175 104.971 47.3389 105.019C47.3389 105.024 47.3442 105.041 47.3442 105.057C47.4995 104.789 47.2318 103.397 47.307 102.62C47.2747 102.401 47.2747 102.61 47.2484 102.32C47.3022 101.533 47.3393 100.993 47.3608 100.163C47.3022 99.9056 47.2698 99.8842 47.216 100.206L47.227 99.5793C47.3931 100.142 47.3717 98.4174 47.5269 99.0384C47.5593 98.8565 47.5593 98.4817 47.5269 98.1388C47.4898 98.1012 47.4303 98.0479 47.4198 97.6088C47.4683 96.9983 47.4627 97.1588 47.4897 96.645C47.5379 96.5217 47.5593 96.704 47.5965 96.6878C47.5269 95.9059 47.6984 96.0025 47.6717 95.2744C47.6503 94.8087 47.6288 93.9038 47.5536 93.8824C47.5427 93.2558 47.6074 93.2558 47.6717 93.32V92.8167C47.704 94.4444 47.704 96.163 47.6984 97.8498C47.9341 94.1767 48.0303 89.8342 47.4897 86.9965L47.4877 86.9961ZM46.9791 110.202C46.9844 110.228 46.9844 110.26 46.9844 110.293C47.0115 110.582 47.0382 110.978 47.0701 111.358C47.1024 111.685 47.1287 112.038 47.1453 112.306C47.1239 112.108 47.1024 111.904 47.081 111.722C47.0058 111.154 46.9472 110.603 46.9472 110.555C46.9472 110.399 46.9739 110.298 46.9795 110.201L46.9791 110.202Z" fill="#1A2021"/>
  <path d="M32.7309 59.9035C32.7738 61.6973 31.6656 63.2122 30.2413 63.2122C28.8169 63.2122 27.7088 61.6969 27.7516 59.9035C27.7997 58.1686 28.9083 56.8086 30.2413 56.8086C31.5742 56.8086 32.6828 58.1686 32.7309 59.9035Z" fill="#E25926"/>
  <path d="M42.0956 0.272381C41.9885 0.202842 41.8385 0.127643 41.6566 0.0690203C41.3404 -0.0219462 41.0728 -0.00577439 40.907 0.0209091L0.937157 17.0102L0.894301 17.0264C0.348503 17.2888 0 17.8346 0 18.4451V101.635C0.0214277 102.24 0.390954 102.77 0.947668 103.005L40.6394 119.877C40.8322 119.962 41.0356 120 41.2442 120C41.5385 120 41.8385 119.914 42.0956 119.738C42.2189 119.657 42.4542 119.475 42.6204 119.149C42.749 118.902 42.7813 118.677 42.7866 118.543V1.56289C42.7866 1.03812 42.5294 0.561856 42.096 0.272381H42.0956ZM30.2413 63.2123C28.8174 63.2123 27.7088 61.697 27.7516 59.9035C27.7998 58.1687 28.9083 56.8086 30.2413 56.8086C31.5743 56.8086 32.6828 58.1687 32.7309 59.9035C32.7738 61.6974 31.6656 63.2123 30.2413 63.2123Z" fill="#E25926"/>
  <path d="M52.0655 101.94H52.0441C52.0441 101.908 52.0389 101.876 52.0332 101.849C52.0441 101.881 52.0546 101.908 52.0655 101.94Z" fill="white"/>
  <path d="M55.1443 17.8507V101.935L52.2956 101.94C52.3118 101.876 52.3227 101.811 52.3332 101.758C52.3275 101.758 52.3223 101.763 52.3118 101.763C52.349 101.63 52.3546 101.64 52.3761 101.689C52.3813 101.7 52.3813 101.705 52.387 101.721C52.5475 101.475 52.2689 100.184 52.3441 99.4722C52.3227 99.2632 52.317 99.4508 52.2855 99.1884C52.3389 98.4603 52.3817 97.9569 52.4084 97.1965C52.3389 96.9502 52.3174 96.9341 52.2536 97.2231L52.2693 96.6503C52.4407 97.175 52.4141 95.574 52.5851 96.1522C52.6227 95.9807 52.6227 95.6383 52.5907 95.3169C52.5479 95.2845 52.4836 95.2312 52.4783 94.8241C52.5265 94.2621 52.5107 94.4064 52.5535 93.9297C52.6017 93.8174 52.6231 93.9888 52.6659 93.9673C52.5855 93.2497 52.7678 93.3407 52.7407 92.6607C52.7193 92.2325 52.6979 91.3916 52.6122 91.3702C52.6065 90.7973 52.6708 90.7973 52.7407 90.8506V90.3849C52.7731 91.8949 52.7783 93.485 52.7678 95.0484C53.025 91.6431 53.1159 87.6219 52.5374 84.9932C52.8264 84.7041 52.8855 81.4006 52.8212 81.3364C52.7622 80.6511 52.7088 79.9549 52.6659 79.2534C52.4141 74.8094 52.4731 69.985 52.5159 64.9947C52.5321 62.2265 52.5483 54.7091 52.6069 51.8713C52.6126 51.6841 52.6126 51.4965 52.6126 51.3089C52.6069 51.4856 52.6017 51.657 52.5911 52.0104C52.5483 50.2756 52.5054 48.696 52.4626 47.1968C52.4359 47.4483 52.4145 47.5021 52.3716 48.0321L52.3878 47.3683C52.3073 46.6616 52.3178 45.0339 52.2859 44.2734C52.3284 44.4339 52.3393 43.8343 52.3445 43.299L52.3174 43.5133C52.3284 41.4894 52.3389 39.1494 52.3445 37.345C52.3498 37.0935 52.366 36.9059 52.3874 36.7935L52.366 35.0639C52.4246 35.1925 52.4412 33.7896 52.4678 34.3411C52.4141 33.0829 52.4788 31.8086 52.4036 30.6147C52.4412 26.4921 52.4787 22.1229 52.3821 17.8446L55.1451 17.8503L55.1443 17.8507Z" fill="white"/>
  <path d="M58.1263 16.4211V103.364C58.1263 104.216 57.4306 104.912 56.5734 104.912L51.9956 104.923C51.9899 104.698 51.9742 104.435 51.9152 104.494C51.9475 104.098 52.0332 104.612 52.0866 104.328C52.0757 104.323 52.0542 104.355 52.0595 104.264L52.1347 103.996C52.0761 103.632 52.0918 103.161 52.0918 102.705C52.0918 102.438 52.0809 102.175 52.0437 101.94H52.0652C52.1238 102.106 52.2099 102.309 52.2633 102.657L52.2418 102.705L52.2309 102.727C52.2523 102.785 52.2734 103.118 52.3328 103.118C52.3437 102.973 52.3486 102.839 52.3486 102.705C52.3486 102.475 52.3271 102.24 52.2899 101.977C52.2899 101.966 52.2952 101.951 52.2952 101.94L55.1439 101.934V17.8507L52.3809 17.845C52.3809 17.7702 52.3809 17.695 52.3756 17.6202C52.37 17.3954 52.3647 17.1759 52.3595 16.9511L52.3166 17.0635C52.2952 16.3139 52.2313 15.6072 52.1775 14.8629L56.5787 14.8738C57.4568 14.8953 58.1263 15.5753 58.1263 16.4211Z" fill="#E25926"/>
  <path d="M52.5366 84.9933C52.8256 84.7042 52.8847 81.4007 52.8204 81.3364C52.7613 80.6512 52.708 79.955 52.6651 79.2535C52.4133 74.8095 52.4723 69.985 52.5151 64.9948C52.5313 62.2266 52.5475 54.7092 52.6061 51.8714C52.6118 51.6842 52.6118 51.4966 52.6118 51.309C52.6061 51.4857 52.6008 51.6571 52.5903 52.0105C52.5475 50.2756 52.5046 48.6961 52.4618 47.1969C52.4351 47.4484 52.4137 47.5022 52.3708 48.0322L52.387 47.3684C52.3065 46.6617 52.317 45.034 52.2851 44.2735C52.3275 44.434 52.3385 43.8344 52.3437 43.2991L52.3166 43.5134C52.3275 41.4895 52.338 39.1494 52.3437 37.3451C52.349 37.0936 52.3651 36.906 52.3866 36.7936L52.3651 35.064C52.4238 35.1926 52.4403 33.7897 52.467 34.3412C52.4132 33.083 52.4779 31.8086 52.4027 30.6148C52.4403 26.4922 52.4779 22.1229 52.3813 17.8447C52.3813 17.7699 52.3813 17.6947 52.3761 17.6199C52.3704 17.3951 52.3651 17.1756 52.3599 16.9508L52.317 17.0632C52.2956 16.3136 52.2317 15.6069 52.1779 14.8626C52.1193 14.0273 52.0761 13.1492 52.1298 12.1158C52.0708 11.5534 52.0013 10.9324 51.9422 10.3276C51.878 9.74382 51.8028 9.25664 51.7065 8.99951C51.4389 9.10139 51.2299 9.20287 51.0855 9.2995C50.4213 9.44424 50.0093 9.57806 49.5759 9.71714C49.0406 9.87239 48.5049 10.0329 47.7444 10.2205C47.9907 10.2633 47.4768 10.4133 47.1396 10.5257C47.1396 10.5795 47.1453 10.6276 47.1453 10.6705C48.1305 10.6866 48.1677 10.499 49.0515 10.51L49.0139 10.4618L49.7958 10.36L50.0958 10.349L50.5992 10.3333C50.653 12.8981 50.7063 15.4521 50.7601 18.0274C50.9582 20.8171 50.9691 23.8367 51.0653 26.7335C51.1672 29.8446 51.2796 33.2124 51.3653 35.9054C51.392 36.5425 51.3439 37.003 51.3172 37.5492C51.3496 39.9803 51.3867 43.0319 51.4191 45.7791C51.4349 47.2515 51.3815 48.3597 51.392 49.8002C51.4082 49.8002 51.4082 50.0145 51.4191 50.1216C51.3439 50.3731 51.5743 58.5973 51.5258 59.1059C51.5258 59.2559 51.5315 59.4111 51.5315 59.5716C51.4939 62.6075 51.3172 65.7505 51.3067 68.3634C51.3439 68.9258 51.3762 69.563 51.4191 70.0449C51.3815 70.5054 51.4514 70.5911 51.4405 71.1478C51.2477 72.5612 51.312 73.386 51.3867 72.6578C51.4025 73.8198 51.3758 74.987 51.3758 76.0151C51.3867 76.4918 51.3973 76.968 51.4082 77.4552C51.4191 77.8623 51.392 78.0924 51.3382 78.2957C51.3597 79.3453 51.3115 79.0401 51.2796 80.1377C51.1992 80.4054 51.3653 82.8954 51.3382 83.2059L51.3277 83.0292C51.3006 84.2983 51.1349 85.1441 51.1082 86.3865C51.0277 89.8562 50.942 93.6092 50.8725 96.8113C50.9792 96.8436 50.8616 96.1045 51.0063 96.0669C50.9525 97.957 50.7601 99.858 50.6849 101.764C50.642 102.107 50.5672 102.524 50.5187 102.685C50.4544 103.29 50.5672 103.043 50.5401 103.488L50.4221 103.547C50.492 104.2 50.2563 104.5 50.2778 105.11C50.3259 105.143 50.3259 105.367 50.3097 105.587C50.1864 105.598 50.2883 106.224 50.1811 106.224L50.1864 106.229C50.1755 106.363 50.1811 106.454 50.154 106.615C50.1702 106.748 50.2454 107.391 50.3255 108.034C50.3627 108.349 50.4059 108.757 50.4431 108.724C50.4807 108.805 50.5074 108.864 50.5183 108.885L50.4916 108.907C50.4807 109.003 50.5826 109.116 50.6149 109.073L50.5935 109.196L50.5826 109.175L50.5555 109.292C50.545 109.303 50.4702 109.244 50.4112 109.148C50.4269 109.19 50.4379 109.233 50.4484 109.271C50.4213 109.282 50.3841 109.282 50.3303 109.255C50.3893 109.282 50.4484 109.314 50.5127 109.351C50.6194 109.303 50.7427 109.18 50.8713 108.939C50.9141 109.105 50.8228 109.308 50.8284 109.437C50.7856 109.469 50.7427 109.523 50.6946 109.571C50.5393 109.501 50.3627 109.416 50.2127 109.341C50.1803 109.346 50.1965 109.517 50.0627 109.416C49.9984 109.287 49.9394 109.4 49.8593 109.298C49.9559 109.255 50.036 109.298 50.1322 109.325C50.0736 109.175 49.9179 109.191 49.8593 109.143C49.8379 109.18 49.2278 109.019 48.8955 108.993C49.0131 108.928 48.8526 108.891 48.6812 108.848C48.7188 108.843 48.7564 108.843 48.7831 108.837C48.7455 108.837 48.7131 108.843 48.6707 108.843C48.585 108.816 48.4993 108.789 48.4402 108.757C48.2098 108.698 48.0493 108.72 48.135 108.784C48.1136 108.81 48.1455 108.837 48.2098 108.869H48.2154C48.3917 108.95 48.7936 109.03 48.7669 109.089C48.7936 109.089 48.815 109.084 48.8312 109.078L48.7989 109.067C48.8793 109.067 48.8793 109.072 48.8312 109.078L48.9703 109.137C48.874 109.142 48.7026 109.137 48.5369 109.115C48.585 109.11 48.6278 109.104 48.6654 109.099C48.5369 109.029 48.1407 108.97 47.9159 108.933C47.905 108.987 47.9854 109.008 47.9745 109.035H47.9692C47.8993 109.046 47.8031 109.04 47.7068 109.029H47.6959C47.6636 109.029 47.6264 109.024 47.594 109.019H47.5884L47.535 108.998C47.4655 108.998 47.385 108.992 47.3155 108.987H47.3102C47.2565 108.97 47.2136 108.954 47.1817 108.928C47.2354 108.917 47.3478 108.949 47.4226 108.965C47.2512 108.928 47.7331 108.896 48.2094 108.869C47.6312 108.879 46.9674 108.885 47.1012 108.911C47.1817 108.938 47.1708 108.965 47.1441 108.981C47.1384 108.986 47.1279 108.991 47.117 108.997C47.1117 109.002 47.1061 109.002 47.1061 109.002C47.0636 109.029 47.0365 109.05 47.1384 109.083L47.235 109.067C48.006 109.233 47.0422 109.484 47.0046 109.704C46.9832 109.784 47.0741 109.854 47.3741 109.923C46.8922 109.661 47.5831 109.784 48.1237 109.864C48.1613 109.934 48.3861 110.057 48.7661 110.175C49.1033 110.223 48.9751 110.153 49.0447 110.121C49.227 110.196 49.5747 110.292 49.5104 110.367C49.7781 110.314 49.8852 110.506 50.1848 110.528C50.4257 110.523 50.1581 110.474 50.3243 110.453C50.6938 110.539 51.2133 110.656 51.5076 110.726C51.5828 110.769 51.6843 110.828 51.7914 110.892C51.8666 110.86 51.9576 110.854 52.0381 111.144V111.186C51.4433 111.047 52.1019 110.988 51.4915 110.903C51.9305 111.175 50.9562 110.854 50.8971 110.988C51.1595 111.122 51.6524 111.218 52.0162 111.261L51.9143 111.218C51.9629 111.224 52.0162 111.229 52.0753 111.234C52.0538 110.838 52.0381 110.303 52.1181 110.03C52.182 110.164 52.2305 110.019 52.2467 110.303L52.2576 109.794C52.2362 109.719 52.2147 109.644 52.2038 109.783C52.1505 109.521 52.1771 109.307 52.2147 109.13C52.2309 109.119 52.2204 108.937 52.1933 108.686C52.1666 108.472 52.1347 108.182 52.0971 107.893C52.0219 107.331 51.9524 106.78 51.9685 106.812C51.9685 106.662 51.99 106.566 52.0057 106.475C52.0486 107.155 52.1824 108.584 52.2095 108.74V108.713C52.2681 108.429 51.8719 105.152 51.9952 104.949V104.922C51.9895 104.697 51.9738 104.435 51.9148 104.494C51.9471 104.097 52.0328 104.611 52.0862 104.328C52.0753 104.322 52.0538 104.354 52.0591 104.263L52.1343 103.996C52.0757 103.632 52.0914 103.16 52.0914 102.705C52.0914 102.437 52.0805 102.175 52.0433 101.939C52.0433 101.907 52.0381 101.875 52.0324 101.848C52.0433 101.881 52.0538 101.907 52.0647 101.939C52.1234 102.105 52.2095 102.309 52.2629 102.657L52.2414 102.705L52.2305 102.726C52.2519 102.785 52.273 103.117 52.3324 103.117C52.3433 102.973 52.3482 102.839 52.3482 102.705C52.3482 102.475 52.3267 102.239 52.2895 101.977C52.2895 101.966 52.2948 101.95 52.2948 101.939C52.311 101.875 52.3219 101.811 52.3324 101.757C52.3267 101.757 52.3215 101.763 52.311 101.763C52.3482 101.629 52.3538 101.639 52.3752 101.688C52.3805 101.699 52.3805 101.704 52.3862 101.72C52.5467 101.474 52.2681 100.183 52.3433 99.4715C52.3219 99.2625 52.3162 99.4501 52.2847 99.1877C52.3381 98.4596 52.3809 97.9562 52.4076 97.1957C52.3381 96.9495 52.3166 96.9333 52.2527 97.2224L52.2685 96.6495C52.4399 97.1743 52.4133 95.5733 52.5843 96.1514C52.6219 95.98 52.6219 95.6376 52.5899 95.3162C52.5471 95.2838 52.4828 95.2305 52.4775 94.8233C52.5256 94.2614 52.5099 94.4057 52.5527 93.929C52.6008 93.8166 52.6223 93.9881 52.6651 93.9666C52.5847 93.249 52.767 93.34 52.7399 92.6599C52.7185 92.2318 52.6971 91.3909 52.6114 91.3694C52.6057 90.7966 52.67 90.7966 52.7399 90.8499V90.3842C52.7723 91.8942 52.7775 93.4843 52.767 95.0477C53.0241 91.6423 53.1151 87.6212 52.5366 84.9925V84.9933ZM47.6911 109.312C47.5625 109.286 47.6001 109.254 47.723 109.227C47.7501 109.264 47.7392 109.302 47.6911 109.312ZM51.996 106.116C52.028 106.271 52.0227 106.368 52.0065 106.464C51.9908 106.245 51.9855 106.111 51.996 106.116Z" fill="#1A2021"/>
  <path d="M48.7673 109.088C48.7673 109.099 48.7458 109.109 48.6977 109.12C48.6925 109.115 48.6816 109.104 48.6654 109.099C48.7026 109.099 48.7406 109.093 48.7673 109.088Z" fill="#1A2021"/>
  <path d="M48.8322 109.077L48.7992 109.066C48.8813 109.066 48.8813 109.072 48.8322 109.077Z" fill="#1A2021"/>
  <path d="M48.9387 108.82C48.9759 108.809 48.9921 108.804 48.9811 108.793C49.083 108.804 49.0511 108.815 48.9387 108.82Z" fill="#1A2021"/>
  <path d="M52.0065 106.465C51.9907 106.245 51.9855 106.111 51.996 106.116C52.0279 106.272 52.0227 106.368 52.0065 106.465Z" fill="#1A2021"/>
  <path d="M32.7293 59.9031C32.775 61.6986 31.664 63.2127 30.2417 63.2127C28.8194 63.2127 27.708 61.6986 27.7541 59.9031C27.7998 58.1683 28.9104 56.8066 30.2417 56.8066C31.5731 56.8066 32.6837 58.1683 32.7293 59.9031Z" fill="white"/>
  <path d="M82.1658 50.4057C81.865 50.1607 81.7146 49.8502 81.7146 49.4742C81.7146 47.2174 82.1565 44.2459 83.0407 40.5591C83.9241 36.8731 85.2126 32.3216 86.9058 26.9044C88.5981 21.2997 89.6513 17.6893 90.0657 16.0713C89.6145 16.0713 88.8808 16.1279 87.8652 16.2403C86.8488 16.3539 86.0406 16.4101 85.439 16.4101C85.063 16.4101 84.7246 16.2508 84.4234 15.9306C84.1226 15.6104 83.9722 15.2442 83.9722 14.8306C83.9722 13.7398 86.0406 13.194 90.1785 13.194C92.0589 13.194 93.0001 13.7204 93.0001 14.7736C93.0001 15.9771 92.5857 17.7637 91.7581 20.1341C90.9681 22.2401 90.4793 23.8391 90.2913 24.9299C89.9153 27.601 88.9365 31.9646 87.357 38.0205L84.8746 47.7822H85.8902L87.0752 47.6695C87.4128 47.6319 87.8082 47.6129 88.2602 47.6129V47.5567C89.7645 47.5567 90.5169 48.0273 90.5169 48.9672C90.5169 49.3808 90.3289 49.7099 89.9529 49.9545C89.5769 50.1995 89.1063 50.3212 88.5424 50.3212C87.9408 50.3212 87.395 50.3026 86.9058 50.2646L85.2134 50.1518C84.9878 50.1518 84.6676 50.2646 84.254 50.4902C83.7652 50.6782 83.4264 50.7728 83.2384 50.7728C82.824 50.7728 82.467 50.6511 82.1662 50.4061L82.1658 50.4057Z" fill="white"/>
  <path d="M113.255 50.7247C112.841 50.4615 112.635 49.9723 112.635 49.2579C112.635 48.1296 112.447 46.2108 112.071 43.502L111.845 42.3178L106.259 41.4712C106.033 42.3368 105.713 44.0862 105.3 46.719C105.074 48.5626 104.716 49.7847 104.228 50.3863C103.964 50.7247 103.588 50.8945 103.1 50.8945C102.648 50.8945 102.234 50.753 101.858 50.4712C101.481 50.1894 101.294 49.8413 101.294 49.4269L101.407 49.1451L101.463 48.9195C103.946 39.2524 105.827 29.7163 107.106 20.3124C107.106 20.162 107.124 19.9081 107.162 19.5507C107.199 19.1937 107.237 18.6762 107.275 17.999C107.387 16.6075 107.51 15.4977 107.642 14.6701C107.773 13.8425 107.99 13.2219 108.291 12.8079H110.209C110.735 12.8079 111.187 12.9304 111.563 13.1746C111.939 13.4196 112.127 13.7669 112.127 14.2181C112.127 17.0772 112.522 21.328 113.312 26.9699C114.064 32.7635 114.441 36.8259 114.441 39.1578C114.441 39.3834 114.535 39.9668 114.722 40.9072C114.91 41.7728 115.005 42.3372 115.005 42.5996C115.005 42.862 115.193 43.992 115.569 45.9852C115.907 47.7912 116.076 48.9571 116.076 49.4835V49.5397C116.076 50.3677 115.776 50.8945 115.174 51.1201C114.308 51.1201 113.668 50.9879 113.255 50.7247ZM111.281 38.1984C111.281 34.8137 110.98 30.4877 110.378 25.2206L109.814 19.3526C108.196 28.1933 107.086 34.8703 106.484 39.3834C107.048 39.7594 108.703 40.0602 111.449 40.2862C111.337 39.7226 111.28 39.0268 111.28 38.1984H111.281ZM109.296 10.1407C109.108 10.0094 109.015 9.83025 109.015 9.60465C109.015 9.41665 109.108 9.22866 109.297 9.04066L110.2 8.25067C110.388 8.06267 111.441 7.14088 113.36 5.48529L116.689 2.60792C116.839 2.53272 117.008 2.49512 117.197 2.49512C117.648 2.49512 118.062 2.72152 118.438 3.17272C118.814 3.62391 119.002 4.09451 119.002 4.5829C119.002 5.03409 118.87 5.33529 118.607 5.48569C117.253 6.53969 114.507 8.11927 110.369 10.2252C110.294 10.3004 110.143 10.338 109.917 10.338C109.692 10.338 109.484 10.2725 109.296 10.1412V10.1407Z" fill="white"/>
  <path d="M134.132 41.3489L134.189 38.1328L134.245 35.5376V34.8038C134.283 34.503 134.302 34.146 134.302 33.7316C134.302 33.6564 134.245 33.5626 134.132 33.4498C134.019 33.337 133.963 33.2424 133.963 33.1672V33.111C133.774 33.1862 133.436 33.2238 132.947 33.2238C132.457 33.2238 131.856 33.1486 131.141 32.9982C130.916 32.9606 130.313 32.866 129.335 32.7156V39.2046C129.335 40.1826 129.392 41.7253 129.505 43.8313C129.618 45.9005 129.675 47.4425 129.675 48.4581C129.675 49.0229 129.524 49.5121 129.223 49.9257C128.922 50.3393 128.527 50.5459 128.039 50.5459C127.324 50.5459 126.816 49.8505 126.515 48.4581C126.215 47.0289 126.064 45.1667 126.064 42.8719L126.177 38.3018C126.214 37.023 126.233 35.6682 126.233 34.239V32.4896C126.233 31.888 126.214 31.4934 126.177 31.3046V31.0228L126.346 27.7501C126.346 26.3209 126.289 24.1955 126.177 21.3739C126.063 18.5532 126.007 16.4278 126.007 14.9978C126.007 14.5466 126.158 14.152 126.458 13.8136C126.759 13.4752 127.135 13.3054 127.588 13.3054C128.791 13.3054 129.393 14.4338 129.393 16.6902L129.28 23.6873C129.205 25.7941 129.167 28.1451 129.167 30.7402C129.731 30.929 130.747 31.0228 132.214 31.0228H134.302C134.377 30.7972 134.415 30.5716 134.415 30.3452C134.415 28.5401 134.302 25.8697 134.077 22.3337C133.813 19.0242 133.681 16.334 133.681 14.2644C133.681 13.8516 133.84 13.5035 134.161 13.2209C134.481 12.9391 134.866 12.7976 135.318 12.7976C135.58 12.7976 135.956 12.8918 136.446 13.0802L136.954 13.3058C136.954 18.6474 137.142 25.7755 137.518 34.6906L138.026 48.9663C138.026 49.4927 137.828 49.9067 137.433 50.2075C137.038 50.5083 136.577 50.6587 136.051 50.6587C134.772 50.6587 134.133 47.5553 134.133 41.3481L134.132 41.3489Z" fill="white"/>
  <path d="M159.184 50.7718C158.77 50.5086 158.563 50.0194 158.563 49.305C158.563 48.1766 158.375 46.2579 157.999 43.5491L157.774 42.3649L152.188 41.5183C151.962 42.3839 151.642 44.1333 151.229 46.7661C151.003 48.6096 150.645 49.8318 150.157 50.4334C149.893 50.7718 149.517 50.9416 149.029 50.9416C148.577 50.9416 148.163 50.8001 147.787 50.5183C147.41 50.2365 147.223 49.8884 147.223 49.474L147.335 49.1922L147.392 48.9666C149.874 39.2995 151.756 29.7634 153.034 20.3595C153.034 20.2091 153.053 19.9552 153.091 19.5978C153.128 19.2408 153.166 18.7233 153.203 18.0461C153.316 16.6545 153.439 15.5448 153.57 14.7172C153.702 13.8896 153.919 13.269 154.219 12.855H156.137C156.664 12.855 157.115 12.9775 157.491 13.2217C157.867 13.4667 158.056 13.814 158.056 14.2652C158.056 17.1243 158.451 21.3751 159.24 27.017C159.993 32.8106 160.369 36.873 160.369 39.2049C160.369 39.4305 160.463 40.0139 160.651 40.9543C160.839 41.8199 160.934 42.3843 160.934 42.6467C160.934 42.9091 161.122 44.0391 161.498 46.0323C161.835 47.8382 162.005 49.0042 162.005 49.5306V49.5868C162.005 50.4148 161.704 50.9416 161.102 51.1672C160.237 51.1672 159.597 51.035 159.184 50.7718ZM157.21 38.2455C157.21 34.8608 156.909 30.5348 156.307 25.2677L155.743 19.3997C154.125 28.2404 153.015 34.9174 152.413 39.4305C152.977 39.8065 154.632 40.1073 157.378 40.3333C157.265 39.7697 157.209 39.0739 157.209 38.2455H157.21Z" fill="white"/>
  <path d="M172.387 43.6061L172.5 34.691C172.538 32.0582 172.557 29.1048 172.557 25.8321C172.557 24.6285 172.444 22.7671 172.218 20.2467C172.029 17.5004 171.936 15.8266 171.936 15.2246C171.936 14.7358 172.142 14.3028 172.557 13.9268C172.97 13.5508 173.422 13.3628 173.911 13.3628C175.227 13.3628 176.496 13.6547 177.719 14.2373C178.941 14.8207 180.022 15.6386 180.963 16.6914C182.957 18.9861 184.273 21.5069 184.913 24.2525C185.252 25.6449 185.422 27.0179 185.422 28.3719C185.422 28.8606 185.403 29.3122 185.365 29.7258L185.309 31.2492V34.3526C185.309 36.7606 185.234 38.66 185.083 40.0515C184.858 41.9319 184.425 43.6061 183.785 45.0729C183.033 46.6533 181.942 48.0639 180.513 49.3051C179.836 49.869 178.971 50.4334 177.917 50.9974H173.855C172.876 50.9974 172.387 48.5337 172.387 43.6061ZM178.424 47.5278C179.064 47.1324 179.609 46.5963 180.061 45.9195C180.437 45.3179 180.784 44.5566 181.105 43.6348C181.425 42.713 181.66 41.8199 181.81 40.9543C182.149 39.2619 182.356 37.532 182.431 35.7636C182.468 35.3124 182.488 34.6546 182.488 33.7886C182.488 22.4287 180.287 16.5042 175.886 16.0146C175.623 17.7078 175.491 19.6633 175.491 21.8833C175.491 24.2533 175.642 28.3905 175.943 34.296C176.205 39.5251 176.337 43.6821 176.337 46.7665V48.1205C177.089 48.1205 177.785 47.9236 178.425 47.5282L178.424 47.5278Z" fill="white"/>
  <path d="M199.809 50.2077C200.223 49.4177 200.43 46.2201 200.43 40.6157C200.43 39.2994 200.336 37.8702 200.148 36.3274L199.978 34.6908C199.865 33.6752 199.809 32.9038 199.809 32.3774V30.9106C199.433 29.9702 198.746 28.2213 197.749 25.6629C196.752 23.1053 195.953 20.9609 195.351 19.2309C194.636 17.237 194.279 15.883 194.279 15.1682V14.8856L195.577 13.9262C196.216 14.0014 196.893 14.8294 197.608 16.4094C198.209 17.8018 198.877 19.7949 199.611 22.3909C200.344 24.9869 200.711 26.3591 200.711 26.5095C200.861 26.0959 201.162 24.6849 201.614 22.2773C202.065 19.8701 202.572 17.7448 203.137 15.9012C203.776 14.0584 204.435 13.1366 205.112 13.1366C205.488 13.1366 205.817 13.2494 206.099 13.475C206.381 13.7006 206.523 13.9832 206.523 14.3216C206.523 16.2404 205.996 18.9483 204.943 22.4467C203.814 26.2459 203.25 28.9923 203.25 30.6846V47.6683C203.25 50.1891 202.629 51.4484 201.388 51.4484C200.748 51.4484 200.222 51.0348 199.808 50.2072L199.809 50.2077Z" fill="white"/>
  <path d="M96.7803 111.442C96.5547 111.197 96.3849 110.774 96.2721 110.172L95.9337 109.1V108.817C95.9337 107.576 94.6452 103.345 92.0686 96.1221C89.492 88.9002 87.4697 83.559 86.003 80.0974V108.479L86.2286 108.874C86.2662 108.95 86.3414 109.082 86.4542 109.27C86.567 109.458 86.624 109.646 86.624 109.834C86.624 110.323 86.4542 110.737 86.1158 111.075C85.7766 111.413 85.363 111.582 84.8746 111.582C83.6702 111.582 83.0686 110.436 83.0686 108.141L83.0124 98.4925C82.974 95.5957 82.9558 92.3605 82.9558 88.787C82.9558 87.5834 83.012 85.8348 83.1256 83.54C83.2376 81.17 83.2946 79.4207 83.2946 78.2923C83.2946 76.5247 83.9714 75.1331 85.3262 74.1167V74.4551C85.5518 74.3799 85.7022 74.3423 85.7774 74.3423C86.6426 74.3423 87.7329 75.8475 89.0501 78.8563C90.1033 81.2642 91.0522 83.8032 91.8988 86.474C92.7454 89.1452 93.8641 92.9435 95.2565 97.8715L95.8205 99.9023C96.6857 102.949 97.3439 105.131 97.7955 106.448C98.5478 98.3611 98.9238 88.8056 98.9238 77.7837V77.0507C98.8862 76.8251 98.8676 76.5809 98.8676 76.3169C98.8676 75.1885 99.3188 74.6245 100.222 74.6245C100.748 74.6245 101.152 74.8319 101.435 75.2455C101.717 75.6591 101.858 76.1859 101.858 76.8251V81.0564C101.783 86.85 101.557 93.1315 101.181 99.9027C100.805 106.674 100.354 110.492 99.8274 111.356C98.7358 111.657 98.0591 111.808 97.7959 111.808C97.3447 111.808 97.0059 111.685 96.7803 111.441V111.442Z" fill="white"/>
  <path d="M116.358 111.752C115.944 111.488 115.738 110.999 115.738 110.285C115.738 109.156 115.55 107.238 115.174 104.529L114.948 103.345L109.362 102.498C109.136 103.364 108.816 105.113 108.403 107.746C108.177 109.589 107.819 110.812 107.331 111.413C107.067 111.752 106.691 111.921 106.203 111.921C105.751 111.921 105.337 111.78 104.961 111.498C104.585 111.216 104.397 110.868 104.397 110.454L104.51 110.172L104.566 109.946C107.049 100.279 108.93 90.7432 110.209 81.3392C110.209 81.1888 110.227 80.935 110.265 80.5776C110.302 80.2206 110.34 79.7031 110.378 79.0259C110.49 77.6343 110.613 76.5245 110.745 75.6969C110.876 74.8693 111.093 74.2487 111.394 73.8347H113.311C113.838 73.8347 114.289 73.9572 114.665 74.2014C115.041 74.4464 115.23 74.7937 115.23 75.2449C115.23 78.1041 115.625 82.3548 116.414 87.9968C117.167 93.7903 117.544 97.8527 117.544 100.185C117.544 100.41 117.637 100.994 117.825 101.934C118.013 102.8 118.108 103.364 118.108 103.626C118.108 103.889 118.296 105.019 118.672 107.012C119.01 108.818 119.179 109.984 119.179 110.51V110.567C119.179 111.395 118.879 111.921 118.277 112.147C117.411 112.147 116.771 112.015 116.358 111.752ZM114.384 99.2253C114.384 95.8405 114.083 91.5146 113.481 86.2474L112.917 80.3795C111.299 89.2202 110.189 95.8971 109.587 100.41C110.151 100.786 111.806 101.087 114.552 101.313C114.439 100.749 114.383 100.054 114.383 99.2253H114.384Z" fill="white"/>
  <path d="M131.086 112.034C130.596 110.04 130.352 107.275 130.352 103.739L130.465 98.718C130.54 97.2137 130.577 95.5395 130.577 93.6959C130.352 93.1695 130.239 92.6997 130.239 92.2853V92.1163C130.615 91.4019 130.803 89.7843 130.803 87.2639L130.859 84.668C130.897 83.8404 130.916 82.9194 130.916 81.9034C130.916 79.6842 130.765 77.9352 130.465 76.6556C130.577 76.1293 130.765 75.6688 131.029 75.2738C131.292 74.8784 131.612 74.6807 131.988 74.6807H134.47C135.523 74.6807 136.445 74.916 137.235 75.3866C138.024 75.8572 138.626 76.5243 139.041 77.3894C139.793 78.9322 140.169 80.7568 140.169 82.8628C140.169 84.3672 140.15 85.5522 140.113 86.4174C140.038 87.509 139.849 88.5051 139.548 89.4075C139.435 89.8971 139.275 90.3014 139.069 90.6208C138.861 90.941 138.57 91.3267 138.194 91.7779C137.668 92.4171 136.803 93.0191 135.599 93.5831C135.109 93.8471 134.47 94.0913 133.68 94.3169V100.354L133.793 103.965L133.906 105.714C134.056 107.821 134.131 109.608 134.131 111.075C134.131 111.526 133.943 111.911 133.568 112.232C133.192 112.551 132.759 112.712 132.27 112.712L131.086 112.035V112.034ZM137.066 82.4678C137.066 81.377 137.01 80.5304 136.896 79.9288C136.784 79.4776 136.633 79.1109 136.445 78.8287C136.257 78.5469 135.975 78.3116 135.599 78.1236C135.185 77.898 134.734 77.7844 134.245 77.7844C134.245 77.7476 134.037 77.7282 133.625 77.7282V80.9444C133.625 83.164 133.643 85.139 133.681 86.8689C133.681 88.8253 133.699 90.1041 133.737 90.7057V92.0035C135.956 91.6651 137.066 88.4865 137.066 82.4674V82.4678Z" fill="white"/>
  <path d="M152.638 111.752C152.225 111.488 152.018 110.999 152.018 110.285C152.018 109.156 151.83 107.238 151.454 104.529L151.228 103.345L145.642 102.498C145.417 103.364 145.096 105.113 144.684 107.746C144.457 109.589 144.099 110.812 143.611 111.413C143.347 111.752 142.971 111.921 142.483 111.921C142.031 111.921 141.617 111.78 141.241 111.498C140.865 111.216 140.677 110.868 140.677 110.454L140.79 110.172L140.846 109.946C143.329 100.279 145.21 90.7432 146.489 81.3392C146.489 81.1888 146.507 80.935 146.545 80.5776C146.583 80.2206 146.62 79.7031 146.658 79.0259C146.771 77.6343 146.893 76.5245 147.025 75.6969C147.156 74.8693 147.373 74.2487 147.674 73.8347H149.592C150.118 73.8347 150.57 73.9572 150.946 74.2014C151.322 74.4464 151.511 74.7937 151.511 75.2449C151.511 78.1041 151.905 82.3548 152.695 87.9968C153.447 93.7903 153.824 97.8527 153.824 100.185C153.824 100.41 153.918 100.994 154.106 101.934C154.294 102.8 154.388 103.364 154.388 103.626C154.388 103.889 154.576 105.019 154.952 107.012C155.29 108.818 155.46 109.984 155.46 110.51V110.567C155.46 111.395 155.159 111.921 154.557 112.147C153.691 112.147 153.052 112.015 152.638 111.752ZM150.664 99.2253C150.664 95.8405 150.363 91.5146 149.761 86.2474L149.197 80.3795C147.579 89.2202 146.469 95.8971 145.867 100.41C146.431 100.786 148.087 101.087 150.833 101.313C150.72 100.749 150.664 100.054 150.664 99.2253H150.664Z" fill="white"/>
  <path d="M159.297 112.034C158.807 110.04 158.563 107.275 158.563 103.739L158.676 98.718C158.751 97.2137 158.789 95.5395 158.789 93.6959C158.563 93.1695 158.45 92.6997 158.45 92.2853V92.1163C158.826 91.4019 159.014 89.7843 159.014 87.2639L159.07 84.668C159.108 83.8404 159.127 82.9194 159.127 81.9034C159.127 79.6842 158.977 77.9352 158.676 76.6556C158.788 76.1293 158.976 75.6688 159.24 75.2738C159.503 74.8784 159.823 74.6807 160.199 74.6807H162.682C163.735 74.6807 164.657 74.916 165.446 75.3866C166.236 75.8572 166.838 76.5243 167.252 77.3894C168.005 78.9322 168.381 80.7568 168.381 82.8628C168.381 84.3672 168.362 85.5522 168.324 86.4174C168.249 87.509 168.06 88.5051 167.76 89.4075C167.647 89.8971 167.487 90.3014 167.28 90.6208C167.073 90.941 166.782 91.3267 166.406 91.7779C165.879 92.4171 165.014 93.0191 163.81 93.5831C163.321 93.8471 162.681 94.0913 161.892 94.3169V100.354L162.004 103.965L162.117 105.714C162.268 107.821 162.343 109.608 162.343 111.075C162.343 111.526 162.155 111.911 161.779 112.232C161.403 112.551 160.97 112.712 160.481 112.712L159.297 112.035V112.034ZM165.278 82.4678C165.278 81.377 165.221 80.5304 165.108 79.9288C164.995 79.4776 164.845 79.1109 164.657 78.8287C164.469 78.5469 164.187 78.3116 163.811 78.1236C163.396 77.898 162.945 77.7844 162.456 77.7844C162.456 77.7476 162.249 77.7282 161.836 77.7282V80.9444C161.836 83.164 161.854 85.139 161.892 86.8689C161.892 88.8253 161.911 90.1041 161.949 90.7057V92.0035C164.168 91.6651 165.278 88.4865 165.278 82.4674V82.4678Z" fill="white"/>
  <path d="M172.922 111.865C172.527 111.527 172.311 111.113 172.274 110.624V108.028C172.236 107.69 172.217 107.295 172.217 106.843C172.217 106.054 172.161 104.85 172.048 103.232L171.936 99.6211C171.936 97.7783 171.992 95.0319 172.105 91.3831C172.255 88.1104 172.33 85.3648 172.33 83.1452C172.33 82.6188 172.274 81.8288 172.161 80.7756C172.048 79.6849 171.991 78.8953 171.991 78.4057C171.991 75.7353 172.781 74.3999 174.361 74.3999C175.603 74.3999 177.041 74.6449 178.678 75.1337C180.313 75.6225 181.132 76.2051 181.132 76.8823C181.132 77.2583 180.972 77.6064 180.652 77.9266C180.332 78.2468 179.947 78.5003 179.496 78.6883C177.915 78.1243 176.486 77.7479 175.207 77.5591C175.244 78.1239 175.264 78.9321 175.264 79.9852C175.264 81.4904 175.245 82.8444 175.207 84.048C175.094 85.854 175.038 87.208 175.038 88.1108L175.207 89.0136L176.11 88.9574C176.411 88.9198 176.787 88.9008 177.239 88.9008C179.044 88.9008 179.947 89.428 179.947 90.4812C179.947 90.8947 179.778 91.2428 179.439 91.5246C179.1 91.8072 178.668 91.9479 178.141 91.9479C177.465 91.9479 176.938 91.9103 176.562 91.8351H175.151C175.226 92.8131 175.264 94.2431 175.264 96.1235C175.264 98.0039 175.245 99.6971 175.208 101.201C175.094 103.496 175.038 105.208 175.038 106.336C175.038 108.443 175.076 109.496 175.151 109.496L177.013 109.44C177.652 109.402 178.424 109.383 179.326 109.383C180.756 109.383 181.47 109.835 181.47 110.738C181.47 111.264 181.235 111.669 180.765 111.951C180.294 112.233 179.721 112.375 179.044 112.375H174.248C173.759 112.375 173.317 112.205 172.922 111.866L172.922 111.865Z" fill="white"/>
  <path d="M193.037 109.89C192.247 107.934 191.665 105.922 191.289 103.853L190.893 101.935C189.802 96.5555 189.106 93.4902 188.806 92.7374H188.129C188.129 93.829 188.11 94.8252 188.072 95.7275V98.8313C188.072 103.872 188.429 107.802 189.144 110.624L188.523 112.147H186.944L186.21 111.301L186.267 107.52C186.267 104.135 186.097 98.9999 185.758 92.1164C185.458 84.7816 185.307 79.6467 185.307 76.7123C185.307 74.9071 185.927 74.0035 187.169 74.0035C189.2 74.0035 190.865 74.5307 192.163 75.5839C193.461 76.6371 194.11 78.1039 194.11 79.9843V83.9342C194.11 84.4991 194.015 85.1479 193.827 85.8809C193.639 86.6147 193.432 87.207 193.207 87.6582L192.135 89.6898L191.232 91.3822L191.514 92.7362L192.304 96.7427C192.831 99.6395 193.338 101.99 193.827 103.796C194.316 105.601 194.918 107.237 195.633 108.704L195.972 109.381C196.348 110.134 196.536 110.736 196.536 111.187C196.536 111.563 196.423 111.892 196.197 112.174C195.972 112.456 195.671 112.598 195.295 112.598C194.467 112.598 193.714 111.694 193.037 109.889V109.89ZM190.47 86.5593C191.053 84.6972 191.345 82.9761 191.345 81.3957C191.345 80.1921 191.195 79.0637 190.894 78.0109C190.705 77.4093 190.394 76.9484 189.962 76.6282C189.53 76.3088 188.994 76.1487 188.355 76.1487L188.242 76.4305L188.129 76.9387L188.242 83.5963C188.317 85.5526 188.355 87.678 188.355 89.9724C189.182 89.5596 189.887 88.4215 190.47 86.5593Z" fill="white"/>
  <path d="M197.72 109.89C197.72 108.987 198.303 108.536 199.47 108.536H200.091L200.655 108.592C200.955 108.592 201.162 108.498 201.275 108.31C201.388 108.122 201.445 107.784 201.445 107.295C201.445 106.655 201.407 105.658 201.332 104.304C201.219 103.401 201.088 101.784 200.937 99.4513C200.598 93.6961 200.429 89.352 200.429 86.4176C200.429 85.3644 200.448 84.4058 200.485 83.5402L200.542 80.6629C200.542 79.4217 200.485 78.3871 200.372 77.5591C199.77 77.7095 199.337 77.7847 199.075 77.7847C198.172 77.7847 197.72 77.3335 197.72 76.4307C197.72 75.9795 198.002 75.5849 198.567 75.2465C199.131 74.9081 199.846 74.6631 200.71 74.5127C202.215 74.2119 203.55 74.0615 204.717 74.0615C205.168 74.0615 205.553 74.2216 205.873 74.541C206.193 74.8612 206.353 75.2275 206.353 75.6411C206.353 76.0547 206.231 76.4125 205.986 76.7133C205.741 77.0141 205.431 77.1645 205.055 77.1645C204.83 77.1645 204.642 77.1459 204.491 77.1079H204.04C203.664 77.1079 203.391 77.1928 203.222 77.3622C203.052 77.5316 202.968 77.8417 202.968 78.2929C202.968 81.9416 203.194 87.4344 203.645 94.7691C203.72 96.1231 203.87 98.1171 204.096 100.75C204.284 102.481 204.379 104.248 204.379 106.054V108.198C204.604 108.161 204.98 108.142 205.507 108.142C207.087 108.142 207.877 108.8 207.877 110.117V110.455L206.466 111.414C206.428 111.414 206.305 111.424 206.099 111.442C205.893 111.461 205.507 111.47 204.943 111.47C203.739 111.545 202.968 111.583 202.63 111.583C199.357 111.583 197.72 111.019 197.72 109.891V109.89Z" fill="white"/>
</svg>